:version 1.10
:name ASF
:units
  mass 1
  length 1
  angle deg
:documentation
  ASF file generated by Kaydara
:root
  axis xyz
  order  tx ty tz rx ry rz
  position 0 0 0
  orientation 0 0 0
:bonedata
  begin
    id 1
    name SpineDummy
    direction 0.999998 -0.00179978 1.38929e-006
    length 3.60008
    axis 0 0 0 xyz
  end
  begin
    id 2
    name Spine
    direction 0.964365 0.262802 0.0305839
    length 8.13928
    axis 1.33928 -1.75354 15.2838 xyz
    dof rx ry rz
  end
  begin
    id 3
    name Spine1
    direction 0.811168 0.572065 0.12144
    length 7.14954
    axis 2.2224 -6.9761 35.2157 xyz
    dof rx ry rz
  end
  begin
    id 4
    name Neck
    direction 0 0 0
    length 0
    axis 2.2224 -6.9761 35.2157 xyz
    dof rx ry rz
  end
  begin
    id 5
    name HeadDummy
    direction 0.810939 0.572387 0.121455
    length 3.55534
    axis 2.2224 -6.9761 35.2157 xyz
  end
  begin
    id 6
    name Head
    direction 0.998226 -0.000232542 0.0595419
    length 7.35666
    axis -3.03688 -3.41352 -0.0133467 xyz
    dof rx ry rz
  end
  begin
    id 7
    name R_ClavicleDummy
    direction 0.531669 -0.194489 -0.824319
    length 2.49392
    axis 2.2224 -6.9761 35.2157 xyz
  end
  begin
    id 8
    name R_Clavicle
    direction -0.155119 0.0480802 -0.986725
    length 4.485
    axis -54.2764 80.6538 162.779 xyz
    dof rx ry rz
  end
  begin
    id 9
    name R_UpperArm
    direction -0.955567 0.200068 -0.216484
    length 10.1122
    axis -72.9943 12.5026 168.175 xyz
    dof rx ry rz
  end
  begin
    id 10
    name R_Forearm
    direction -0.61433 0.385743 0.688332
    length 9.39148
    axis -117.015 -43.4982 147.875 xyz
    dof rx ry rz
  end
  begin
    id 11
    name R_Hand
    direction -0.699429 0.0170333 0.714499
    length 3.66324
    axis -45.0303 -36.7097 175.478 xyz
    dof rx ry rz
  end
  begin
    id 12
    name L_ClavicleDummy
    direction 0.40287 -0.36502 0.839319
    length 2.49392
    axis 2.2224 -6.9761 35.2157 xyz
  end
  begin
    id 13
    name L_Clavicle
    direction -0.231271 -0.0726419 0.970174
    length 4.485
    axis 18.4357 -75.9711 -162.563 xyz
    dof rx ry rz
  end
  begin
    id 14
    name L_UpperArm
    direction -0.917494 0.144359 0.370629
    length 10.1122
    axis 56.0417 -21.7544 171.058 xyz
    dof rx ry rz
  end
  begin
    id 15
    name L_Forearm
    direction -0.496786 0.615074 -0.612281
    length 9.39148
    axis 89.8094 37.7546 128.927 xyz
    dof rx ry rz
  end
  begin
    id 16
    name L_Hand
    direction -0.409932 0.64962 -0.640274
    length 3.66324
    axis -0.424369 32.133 128.52 xyz
    dof rx ry rz
  end
  begin
    id 17
    name L_ThighDummy
    direction -1.84081e-006 1.87549e-006 1
    length 3.13049
    axis 0 0 0 xyz
  end
  begin
    id 18
    name L_Thigh
    direction -0.947739 0.307978 0.083308
    length 17.9961
    axis 173.219 -4.77873 161.998 xyz
    dof rx ry rz
  end
  begin
    id 19
    name L_Calf
    direction -0.728814 -0.684427 0.0197583
    length 13.3367
    axis 167.331 -1.13214 -136.799 xyz
    dof rx ry rz
  end
  begin
    id 20
    name L_Foot
    direction -0.9028 0.418719 0.0981191
    length 5.8674
    axis 163.436 11.5135 -155.37 xyz
    dof rx ry rz
  end
  begin
    id 21
    name L_Toe0
    direction -0.35341 0.886259 0.299411
    length 4.75286
    axis 169.316 -17.4222 111.74 xyz
    dof rx ry rz
  end
  begin
    id 22
    name R_ThighDummy
    direction 9.32778e-007 -8.82053e-007 -1
    length 3.13049
    axis 0 0 0 xyz
  end
  begin
    id 23
    name R_Thigh
    direction -0.925064 0.37528 -0.0585023
    length 17.9961
    axis -178.698 3.35385 157.919 xyz
    dof rx ry rz
  end
  begin
    id 24
    name R_Calf
    direction -0.68969 -0.718776 -0.0876886
    length 13.3367
    axis -160.504 5.03065 -133.817 xyz
    dof rx ry rz
  end
  begin
    id 25
    name R_Foot
    direction -0.857405 0.418858 -0.299022
    length 5.8674
    axis -161.328 4.38911 -154.413 xyz
    dof rx ry rz
  end
  begin
    id 26
    name R_Toe0
    direction -0.100745 0.952789 -0.286433
    length 4.75286
    axis 171.683 16.6445 96.0359 xyz
    dof rx ry rz
  end
:hierarchy
  begin
    root SpineDummy L_ThighDummy R_ThighDummy
    SpineDummy Spine
    Spine Spine1
    Spine1 Neck
    Neck HeadDummy R_ClavicleDummy L_ClavicleDummy
    HeadDummy Head
    R_ClavicleDummy R_Clavicle
    R_Clavicle R_UpperArm
    R_UpperArm R_Forearm
    R_Forearm R_Hand
    L_ClavicleDummy L_Clavicle
    L_Clavicle L_UpperArm
    L_UpperArm L_Forearm
    L_Forearm L_Hand
    L_ThighDummy L_Thigh
    L_Thigh L_Calf
    L_Calf L_Foot
    L_Foot L_Toe0
    R_ThighDummy R_Thigh
    R_Thigh R_Calf
    R_Calf R_Foot
    R_Foot R_Toe0
  end

:SAMPLES-PER-SECOND 30
:FULLY-SPECIFIED
:DEGREES
318
root  -0.742973 32.4178 -67.2997 117.696 -0.223384 91.4642
Spine  1.2919 6.68326 -11.2144
Spine1  1.22334 -0.839467 -0.19739
Neck  3.97569e-016 0 -2.38542e-015
Head  -6.5896 -9.10607 17.355
R_Clavicle  0.519173 -8.95851 2.9587
R_UpperArm  5.31958 -0.56153 -5.80676
R_Forearm  15.8514 -8.73663 7.30438
R_Hand  -0.578846 5.70879 -14.6791
L_Clavicle  -0.448473 15.9384 -4.6106
L_UpperArm  -18.5496 22.9174 44.4314
L_Forearm  11.7025 37.9413 42.9806
L_Hand  0.465528 2.46993 6.70283
L_Thigh  2.56422 -1.98809 6.20648
L_Calf  -4.59604 -2.09785 14.8994
L_Foot  1.85732 9.79115 -1.89161
L_Toe0  -2.18368 0.0817254 -4.74679
R_Thigh  2.30206 10.2161 -13.2253
R_Calf  -2.50501 9.66177 30.762
R_Foot  -4.47851 -9.50025 8.42928
R_Toe0  -1.78853 -0.272788 -17.3235
319
root  -0.371137 32.3863 -66.4818 116.12 0.103354 90.752
Spine  2.50002 10.0771 -10.9825
Spine1  2.07336 -4.98391 -0.747972
Neck  3.97569e-016 0 -2.38542e-015
Head  -7.60495 -9.6367 17.9289
R_Clavicle  0.540851 -8.2085 3.08783
R_UpperArm  4.8128 0.479603 -6.33908
R_Forearm  17.7862 -12.0511 10.1879
R_Hand  -0.57416 5.16754 -14.3547
L_Clavicle  -0.439098 15.8048 -4.58292
L_UpperArm  -16.6745 21.8383 46.0665
L_Forearm  4.86923 35.3232 40.8756
L_Hand  0.348092 2.2019 5.20202
L_Thigh  0.560604 -0.42158 7.50127
L_Calf  1.75212 -3.34669 24.8349
L_Foot  1.36521 9.16649 -3.1466
L_Toe0  0.770614 0.0253411 -6.28632
R_Thigh  1.89203 10.7631 -15.5809
R_Calf  -3.87353 10.1067 32.0161
R_Foot  -4.88494 -9.96325 9.52711
R_Toe0  -1.78853 -0.272788 -17.3235
320
root  -0.0497842 32.1382 -65.6253 114.903 1.93831 89.5675
Spine  3.84099 14.3916 -9.10402
Spine1  2.83989 -8.47267 -0.995895
Neck  3.97569e-016 0 -2.38542e-015
Head  -8.587 -10.0798 17.7618
R_Clavicle  0.550061 -8.36566 3.17178
R_UpperArm  4.0858 2.29757 -5.63004
R_Forearm  19.8188 -15.521 13.3214
R_Hand  -0.571306 4.64111 -14.0139
L_Clavicle  -0.451294 15.9763 -4.11962
L_UpperArm  -13.7831 20.2452 45.6152
L_Forearm  -1.42492 31.7658 38.4257
L_Hand  0.186593 1.67804 3.02663
L_Thigh  -1.59831 1.6361 10.0221
L_Calf  7.57859 -3.81468 28.3316
L_Foot  2.2704 11.3175 -1.64389
L_Toe0  0.505156 0.034446 -6.1361
R_Thigh  -0.230227 13.1965 -18.5363
R_Calf  -2.72247 9.65179 31.9794
R_Foot  -4.88617 -9.2525 10.7949
R_Toe0  -1.78853 -0.272788 -17.3235
321
root  0.293568 31.7364 -64.7168 115.429 4.62812 88.4148
Spine  4.57522 18.2707 -6.85041
Spine1  2.87259 -10.2921 -0.40378
Neck  3.97569e-016 0 -2.38542e-015
Head  -9.45936 -10.6238 16.8754
R_Clavicle  0.502986 -9.43022 2.84825
R_UpperArm  2.62381 4.44271 -3.43429
R_Forearm  24.3221 -19.4714 17.1551
R_Hand  -0.641376 4.9098 -14.872
L_Clavicle  -0.480463 16.4725 -3.15172
L_UpperArm  -11.8905 18.1785 42.3881
L_Forearm  -6.3685 28.4625 36.4015
L_Hand  0.0123579 0.792497 0.287763
L_Thigh  -1.42476 3.1439 12.4772
L_Calf  10.7968 -3.89413 27.5656
L_Foot  2.34166 11.6627 -1.66382
L_Toe0  0.505156 0.034446 -6.1361
R_Thigh  -2.53423 16.0715 -22.0877
R_Calf  0.178473 9.48556 30.8474
R_Foot  -4.82978 -7.86921 13.1698
R_Toe0  -1.78853 -0.272788 -17.3235
322
root  0.695503 31.2816 -63.7697 118.755 6.33559 88.4768
Spine  4.01482 18.5176 -6.10819
Spine1  2.12496 -8.80273 0.916647
Neck  3.97569e-016 0 -2.38542e-015
Head  -10.5651 -11.2036 15.8756
R_Clavicle  0.439821 -11.4317 2.32681
R_UpperArm  3.47792 6.21158 0.800322
R_Forearm  28.7426 -24.4837 20.3449
R_Hand  -0.805923 5.8654 -16.8071
L_Clavicle  -0.519761 17.4668 -1.77193
L_UpperArm  -11.9502 15.7309 36.4695
L_Forearm  -9.2712 26.0506 34.2234
L_Hand  -0.129101 0.00329081 -2.64802
L_Thigh  1.60172 1.39177 13.6949
L_Calf  10.6648 -3.22162 25.5572
L_Foot  1.41267 12.5232 -5.33244
L_Toe0  0.505156 0.034446 -6.1361
R_Thigh  -2.2443 17.4344 -24.9355
R_Calf  2.46371 9.50755 29.2885
R_Foot  -4.89568 -6.59286 16.237
R_Toe0  -1.78853 -0.272788 -17.3235
323
root  1.16319 30.7965 -62.7866 123.313 6.23524 90.3435
Spine  3.09346 13.9262 -6.05159
Spine1  1.71478 -4.58584 2.14953
Neck  3.97569e-016 0 -2.38542e-015
Head  -12.774 -10.9609 15.1587
R_Clavicle  0.404742 -14.1735 1.90822
R_UpperArm  15.3264 6.84181 7.33474
R_Forearm  25.5515 -31.9178 20.1899
R_Hand  -0.991376 6.71728 -18.6273
L_Clavicle  -0.545183 18.5591 -0.761644
L_UpperArm  -13.1768 13.3612 29.0178
L_Forearm  -9.37285 23.6635 30.4235
L_Hand  -0.232277 -0.0100157 -4.75945
L_Thigh  7.09483 -3.24247 13.8859
L_Calf  8.78641 -2.85217 21.6435
L_Foot  0.295722 12.8852 -9.21726
L_Toe0  0.505156 0.034446 -6.1361
R_Thigh  1.09495 16.6342 -26.6404
R_Calf  2.80061 8.40861 27.3257
R_Foot  -5.00434 -5.26679 20.033
R_Toe0  -1.79982 -0.275827 -17.4368
324
root  1.67975 30.2979 -61.8231 125.822 4.76869 93.4726
Spine  3.19262 7.23723 -4.97869
Spine1  2.48558 -1.3903 3.22247
Neck  3.97569e-016 0 -2.38542e-015
Head  -16.1071 -9.11322 14.1534
R_Clavicle  0.390535 -16.9574 1.49444
R_UpperArm  26.7572 5.7074 14.9636
R_Forearm  21.9323 -37.4538 21.0402
R_Hand  -1.10537 7.19146 -19.6425
L_Clavicle  -0.555911 18.7828 -0.837289
L_UpperArm  -12.9391 11.229 21.2322
L_Forearm  -7.98788 19.8771 24.6717
L_Hand  -0.306129 0.769908 -5.42918
L_Thigh  8.71807 -7.83909 13.5532
L_Calf  8.81205 -2.14654 16.2759
L_Foot  0.657695 12.7108 -7.92562
L_Toe0  0.505156 0.034446 -6.1361
R_Thigh  3.73013 13.6856 -27.5083
R_Calf  2.84223 7.29506 23.6505
R_Foot  -4.96288 -3.7635 23.942
R_Toe0  -1.72447 -0.251635 -16.7538
325
root  2.23126 29.8788 -60.9396 125.101 2.96963 96.6455
Spine  3.92148 2.12257 -3.60544
Spine1  3.69375 -1.73407 4.77071
Neck  3.97569e-016 0 -2.38542e-015
Head  -18.829 -6.37008 12.0694
R_Clavicle  0.385546 -18.948 0.933237
R_UpperArm  32.4494 2.849 21.3755
R_Forearm  20.1428 -40.7501 22.5532
R_Hand  -1.14979 7.44952 -20.0236
L_Clavicle  -0.532316 17.845 -1.50031
L_UpperArm  -10.9475 8.92492 13.4358
L_Forearm  -6.43905 14.8703 17.8494
L_Hand  -0.333702 1.60145 -5.20925
L_Thigh  6.22655 -10.5675 13.251
L_Calf  8.81286 -1.44819 11.2786
L_Foot  2.14585 12.503 -2.9278
L_Toe0  0.505156 0.034446 -6.1361
R_Thigh  6.99175 9.36649 -25.8481
R_Calf  1.00388 4.76829 14.9714
R_Foot  -4.62711 -3.29341 23.6043
R_Toe0  -0.827381 -0.216697 -8.96033
326
root  2.82514 29.577 -60.0786 123.088 1.66439 98.7195
Spine  3.97898 -0.605356 -3.45874
Spine1  3.91482 -3.55847 6.75666
Neck  3.97569e-016 0 -2.38542e-015
Head  -18.8954 -4.33199 9.29035
R_Clavicle  0.384904 -20.0047 0.323116
R_UpperArm  32.8797 -0.533733 25.646
R_Forearm  17.6391 -42.8305 23.3348
R_Hand  -1.16305 7.60596 -20.1267
L_Clavicle  -0.478878 16.6017 -1.62759
L_UpperArm  -8.07104 6.12784 5.45985
L_Forearm  -5.43776 9.89008 11.606
L_Hand  -0.322731 1.82927 -4.87428
L_Thigh  2.72704 -11.4767 12.982
L_Calf  8.40524 -0.900142 7.49745
L_Foot  3.42981 12.42 1.28751
L_Toe0  0.505156 0.034446 -6.1361
R_Thigh  10.7188 4.70789 -20.5727
R_Calf  -4.03247 0.403137 1.25381
R_Foot  -3.44867 -4.52205 12.8628
R_Toe0  -0.509438 1.17928 9.92944
327
root  3.4359 29.4425 -59.1476 121.728 1.21081 99.6801
Spine  2.77297 -2.47892 -4.57449
Spine1  2.79545 -3.63666 8.50534
Neck  3.97569e-016 0 -2.38542e-015
Head  -15.7732 -3.51279 7.20395
R_Clavicle  0.388253 -20.6053 -0.131097
R_UpperArm  30.0404 -3.28446 28.7795
R_Forearm  14.7793 -43.544 22.9253
R_Hand  -1.18323 7.81986 -20.2804
L_Clavicle  -0.441236 15.7016 -0.912337
L_UpperArm  -5.12782 3.05063 -2.44961
L_Forearm  -4.44325 6.64843 7.72398
L_Hand  -0.309104 1.66569 -4.77521
L_Thigh  1.25921 -11.7053 11.8714
L_Calf  7.84351 -0.488892 4.6389
L_Foot  4.57458 12.0174 5.29685
L_Toe0  0.505156 0.034446 -6.1361
R_Thigh  13.8339 -0.561782 -15.0538
R_Calf  -12.1206 -3.14972 -9.81738
R_Foot  0.0729499 -1.08376 -3.35714
R_Toe0  -7.25658 6.44167 20.6044
328
root  4.00871 29.5888 -58.0956 120.483 2.04226 100.078
Spine  1.01735 -4.40082 -5.70715
Spine1  1.23457 -1.58486 9.18286
Neck  3.97569e-016 0 -2.38542e-015
Head  -10.4377 -3.32922 7.17521
R_Clavicle  0.394184 -20.9652 -0.278738
R_UpperArm  26.9021 -5.5702 31.6883
R_Forearm  13.799 -42.7878 22.0222
R_Hand  -1.21868 8.09461 -20.5392
L_Clavicle  -0.41598 14.7586 -0.0271996
L_UpperArm  -2.59903 0.177301 -9.18496
L_Forearm  -2.63533 6.2049 7.20019
L_Hand  -0.315032 1.48731 -4.99818
L_Thigh  1.744 -11.1891 8.71939
L_Calf  6.89814 -0.360589 3.72567
L_Foot  5.32347 11.1582 8.51652
L_Toe0  0.505156 0.034446 -6.1361
R_Thigh  16.1288 -5.06567 -11.8403
R_Calf  -14.229 -5.27888 -16.6424
R_Foot  2.07883 4.78411 -9.43531
R_Toe0  -13.6731 6.34749 5.99641
329
root  4.48087 30.0692 -56.9418 117.907 3.70172 100.084
Spine  -0.431785 -6.21708 -6.377
Spine1  -0.0432957 0.973864 8.30825
Neck  3.97569e-016 0 -2.38542e-015
Head  -4.02129 -3.50189 9.79589
R_Clavicle  0.39299 -20.8637 -0.18755
R_UpperArm  25.0813 -8.07015 34.4225
R_Forearm  15.2056 -40.9069 21.2941
R_Hand  -1.2391 8.11601 -20.6681
L_Clavicle  -0.389211 13.4054 0.514697
L_UpperArm  -0.480298 -2.14519 -13.4039
L_Forearm  -0.554405 8.13116 9.48528
L_Hand  -0.323371 1.23495 -5.33499
L_Thigh  1.94833 -9.27631 3.76518
L_Calf  5.64778 -0.625664 5.64123
L_Foot  5.50981 10.0792 10.2493
L_Toe0  0.505156 0.034446 -6.1361
R_Thigh  16.9088 -7.71844 -10.2004
R_Calf  -11.2265 -6.08687 -19.3019
R_Foot  1.97668 5.1682 -7.29554
R_Toe0  -8.69057 1.08288 -9.16785
330
root  4.82225 30.7264 -55.7547 114.107 4.89967 99.6065
Spine  -1.55296 -7.94096 -7.2889
Spine1  -1.17585 3.3759 6.11469
Neck  3.97569e-016 0 -2.38542e-015
Head  2.78869 -4.21486 14.2516
R_Clavicle  0.381075 -20.2289 -0.0866857
R_UpperArm  22.695 -10.7302 36.8569
R_Forearm  18.4993 -37.7159 20.6473
R_Hand  -1.19939 7.90088 -20.3547
L_Clavicle  -0.368172 11.9903 0.88662
L_UpperArm  1.68299 -3.84444 -14.8542
L_Forearm  0.0486125 11.28 13.3071
L_Hand  -0.31082 1.03474 -5.29192
L_Thigh  0.615745 -6.55836 -1.47283
L_Calf  4.95353 -1.20261 9.8218
L_Foot  5.37763 9.26357 10.7138
L_Toe0  0.505156 0.034446 -6.1361
R_Thigh  15.6222 -9.24892 -8.05727
R_Calf  -8.91582 -5.69091 -18.013
R_Foot  1.69717 4.71805 -4.65022
R_Toe0  -1.84363 -0.398532 -17.5346
331
root  5.06952 31.4479 -54.5685 110.577 5.3491 98.667
Spine  -2.85715 -9.33088 -8.57176
Spine1  -2.56173 5.95708 3.53032
Neck  3.97569e-016 0 -2.38542e-015
Head  9.27568 -5.20375 18.6504
R_Clavicle  0.3639 -19.3956 -0.0813307
R_UpperArm  16.9778 -12.8153 38.9357
R_Forearm  23.637 -32.8028 20.23
R_Hand  -1.10262 7.90943 -19.6425
L_Clavicle  -0.360449 10.6669 1.29952
L_UpperArm  4.55151 -5.26012 -14.7704
L_Forearm  -1.45902 14.7956 17.752
L_Hand  -0.266336 1.17257 -4.42057
L_Thigh  -1.37171 -3.89728 -6.61018
L_Calf  5.17167 -2.04725 15.8275
L_Foot  5.12738 9.0189 10.1479
L_Toe0  0.513593 0.034999 -6.22739
R_Thigh  13.626 -10.0807 -5.59105
R_Calf  -9.04462 -4.21104 -13.2319
R_Foot  1.60591 4.33714 -4.69939
R_Toe0  -1.94687 -0.268579 -17.2734
332
root  5.27776 32.0912 -53.4194 108.031 5.81677 97.8662
Spine  -4.41259 -10.2897 -9.37906
Spine1  -4.14903 8.55111 1.69608
Neck  3.97569e-016 0 -2.38542e-015
Head  14.797 -5.81058 21.395
R_Clavicle  0.350581 -18.7202 -0.0613669
R_UpperArm  9.58359 -13.602 40.3982
R_Forearm  29.2357 -27.166 20.3835
R_Hand  -1.00058 7.94408 -18.9051
L_Clavicle  -0.3517 9.12334 1.57744
L_UpperArm  8.38719 -6.84387 -14.4483
L_Forearm  -3.65108 18.0408 22.0878
L_Hand  -0.187514 1.57337 -2.90274
L_Thigh  -2.74502 -1.87537 -11.5339
L_Calf  5.4864 -2.85481 21.64
L_Foot  4.61448 8.99376 8.42835
L_Toe0  0.437887 0.0297779 -5.41274
R_Thigh  11.6905 -10.6441 -4.34936
R_Calf  -9.51738 -1.74734 -5.47697
R_Foot  1.47548 3.49627 -5.68329
R_Toe0  -2.45421 -0.225358 -15.966
